<svg version="1.2" xmlns="http://www.w3.org/2000/svg" viewBox="0 0 170 41" width="170" height="41"><defs><clipPath clipPathUnits="userSpaceOnUse" id="cp1"><path d="m0 0h170v41h-170z"/></clipPath></defs><style>.a{fill:#fff}.b{fill:#7c877f}</style><filter id="f0"><feFlood flood-color="#000000" flood-opacity="1" /><feBlend mode="normal" in2="SourceGraphic"/><feComposite in2="SourceAlpha" operator="in" /></filter><g clip-path="url(#cp1)" filter="url(#f0)"><path class="a" d="m51.9 28.1h11.9v-3.6h-7.7v-13.5h-4.2z"/><path class="a" d="m70.9 28.5c4 0 6.6-2.8 6.6-6.5 0-3.7-2.6-6.5-6.6-6.5-3.9 0-6.6 2.8-6.6 6.5 0 3.7 2.7 6.5 6.6 6.5zm0-2.8c-1.7 0-2.6-1.4-2.6-3.7 0-2.2 0.9-3.7 2.6-3.7 1.7 0 2.6 1.5 2.6 3.7 0 2.3-0.9 3.7-2.6 3.7z"/><path class="a" d="m84.3 32.4c1.8 0 3.5-0.4 4.5-1.4 1-0.9 1.7-2.2 1.7-4.1v-11h-3.8v1.3c-0.7-1.1-1.8-1.7-3.5-1.7-3 0-5.1 2.5-5.1 6.1 0 3.8 2.5 5.9 5.3 5.9 1.5 0 2.4-0.6 3.1-1.4h0.1v1.2c0 1.5-0.7 2.3-2.3 2.3-1.3 0-2-0.5-2.2-1.2h-3.8c0.4 2.6 2.6 4 6 4zm0-7.8c-1.5 0-2.4-1.2-2.4-3.1 0-1.9 0.9-3.1 2.4-3.1 1.6 0 2.5 1.4 2.5 3.1 0 1.7-0.8 3.1-2.5 3.1z"/><path class="a" d="m98.2 28.5c4 0 6.5-2.8 6.5-6.5 0-3.7-2.5-6.5-6.5-6.5-3.9 0-6.6 2.8-6.6 6.5 0 3.7 2.7 6.5 6.6 6.5zm0-2.8c-1.7 0-2.6-1.4-2.6-3.7 0-2.2 0.9-3.7 2.6-3.7 1.7 0 2.6 1.5 2.6 3.7 0 2.3-0.9 3.7-2.6 3.7z"/><path class="a" d="m105.9 28.1h3.9v-12.3h-3.9zm0-13.9h3.9v-3.2h-3.9z"/><path class="a" d="m111.5 32.2h3.9v-5.3h0.1c0.7 1 1.8 1.6 3.4 1.6 3.3 0 5.4-2.5 5.4-6.5 0-3.7-2-6.5-5.3-6.5-1.7 0-2.8 0.7-3.7 1.8h-0.1v-1.4h-3.7zm6.4-6.7c-1.7 0-2.6-1.4-2.6-3.4 0-2 0.9-3.5 2.6-3.5 1.6 0 2.4 1.4 2.4 3.5 0 2.1-0.9 3.4-2.4 3.4z"/><path class="a" d="m130.7 28.5c3.2 0 5.5-1.4 5.5-4.1 0-3.1-2.5-3.7-4.7-4-1.5-0.3-2.9-0.4-2.9-1.3 0-0.8 0.7-1.1 1.7-1.1 1.1 0 1.8 0.3 2 1.4h3.6c-0.2-2.4-2.1-3.9-5.6-3.9-2.9 0-5.3 1.3-5.3 3.9 0 2.9 2.3 3.5 4.4 3.8 1.7 0.3 3.2 0.5 3.2 1.6 0 0.7-0.8 1.2-2 1.2-1.3 0-2.1-0.6-2.2-1.8h-3.7c0.1 2.7 2.4 4.3 6 4.3z"/><path class="a" d="m141.6 28.5c1.7 0 2.7-0.7 3.6-1.9h0.1v1.5h3.7v-12.2h-3.9v6.8c0 1.5-0.8 2.5-2.1 2.5-1.3 0-1.9-0.8-1.9-2.1v-7.2h-3.9v8c0 2.8 1.5 4.6 4.4 4.6z"/><path class="a" d="m150.8 28.1h3.9v-6.8c0-1.5 0.7-2.5 1.9-2.5 1.2 0 1.7 0.7 1.7 2v7.3h3.9v-6.8c0-1.5 0.7-2.5 2-2.5 1.2 0 1.7 0.7 1.7 2v7.3h3.9v-8c0-2.7-1.4-4.6-4.1-4.6-1.6 0-3 0.7-3.9 2.2h-0.1c-0.6-1.4-1.8-2.2-3.4-2.2-1.8 0-3 0.8-3.7 2.1h-0.1v-1.7h-3.8z"/><path fill-rule="evenodd" class="b" d="m0.7 20.1c0-11 8.9-20 20-20 11 0 20 9 20 20 0 11.1-9 20-20 20-11.1 0-20-8.9-20-20zm26.2-10.6c0.3-1.1-0.7-1.8-1.7-1.1l-13.3 9.5c-1.1 0.8-0.9 2.2 0.2 2.2h3.5 6.9l-5.6 2-2.5 8.7c-0.3 1.1 0.8 1.7 1.7 1.1l13.4-9.6c1-0.7 0.9-2.2-0.3-2.2h-5.3z"/></g></svg>